<?xml version="1.0" encoding="iso-8859-1"?>
<!DOCTYPE svg PUBLIC "-//W3C//DTD SVG 20001102//EN"
 "http://www.w3.org/TR/2000/CR-SVG-20001102/DTD/svg-20001102.dtd">

<svg height="3em" viewBox="-12.5 -1 78.0 17.0"
    xmlns="http://www.w3.org/2000/svg"
    xmlns:xlink="http://www.w3.org/1999/xlink/">

<defs>
<linearGradient id="gradient_to_transparent_grey" x1="0" y1="0" x2="100%" y2="0">
    <stop offset="0" stop-color="white" stop-opacity="0"/>
    <stop offset="0.5" stop-color="#222222"  stop-opacity="1"/>
    <stop offset="1" stop-color="#222222"  stop-opacity="1"/>
</linearGradient>
</defs>
<g transform="translate(-10.0,0)">
   <rect x="-3" y="0.0" width="10.0" height="15.0" fill="url(#gradient_to_transparent_grey)"
    stroke="url(#gradient_to_transparent_grey)" stroke-width="1"/>
   <g transform="translate(-3,0)">
   <ellipse cx="10.0" cy="7.5"
            rx="0.5"  ry="7.5"
            stroke="black" fill="black" stroke-width="1"/>
   </g>
</g>


<line x1="-3.0" x2="0.0" y1="7.5" y2="7.5" stroke="black" stroke-width="1"/>


<g transform="translate(0.0,0)">
   <ellipse cx="0"  cy="7.5"
            rx="0.5" ry="5.0"
            stroke="blue" stroke-width="1"
            fill="blue"/>
   <rect x="0" y="2.5" width="10.0" height="10.0" fill="blue"
    stroke="blue" stroke-width="1"/>
   <ellipse cx="10.0" cy="7.5"
            rx="0.5"  ry="5.0"
            stroke="darkblue" fill="darkblue" stroke-width="1"/>
</g>


<line x1="10.0" x2="13.0" y1="7.5" y2="7.5" stroke="black" stroke-width="1"/>


<g transform="translate(13.0,0)">
   <ellipse cx="0"  cy="7.5"
            rx="0.5" ry="5.0"
            stroke="blue" stroke-width="1"
            fill="blue"/>
   <rect x="0" y="2.5" width="10.0" height="10.0" fill="blue"
    stroke="blue" stroke-width="1"/>
   <ellipse cx="10.0" cy="7.5"
            rx="0.5"  ry="5.0"
            stroke="darkblue" fill="darkblue" stroke-width="1"/>
</g>


<line x1="23.0" x2="26.0" y1="7.5" y2="7.5" stroke="black" stroke-width="1"/>


<g transform="translate(26.0,0)">
   <ellipse cx="0"  cy="7.5"
            rx="0.5" ry="5.0"
            stroke="blue" stroke-width="1"
            fill="blue"/>
   <rect x="0" y="2.5" width="10.0" height="10.0" fill="blue"
    stroke="blue" stroke-width="1"/>
   <ellipse cx="10.0" cy="7.5"
            rx="0.5"  ry="5.0"
            stroke="darkblue" fill="darkblue" stroke-width="1"/>
</g>


<line x1="36.0" x2="39.0" y1="7.5" y2="7.5" stroke="black" stroke-width="1"/>


<g transform="translate(39.0,0)">
   <ellipse cx="0"  cy="7.5"
            rx="0.5" ry="5.0"
            stroke="blue" stroke-width="1"
            fill="blue"/>
   <rect x="0" y="2.5" width="10.0" height="10.0" fill="blue"
    stroke="blue" stroke-width="1"/>
   <ellipse cx="10.0" cy="7.5"
            rx="0.5"  ry="5.0"
            stroke="darkblue" fill="darkblue" stroke-width="1"/>
</g>


<line x1="49.0" x2="52.0" y1="7.5" y2="7.5" stroke="black" stroke-width="1"/>


<g transform="translate(52.0,0)">
   <ellipse cx="0"  cy="7.5"
            rx="0.5" ry="5.0"
            stroke="blue" stroke-width="1"
            fill="blue"/>
   <rect x="0" y="2.5" width="10.0" height="10.0" fill="blue"
    stroke="blue" stroke-width="1"/>
   <ellipse cx="10.0" cy="7.5"
            rx="0.5"  ry="5.0"
            stroke="darkblue" fill="darkblue" stroke-width="1"/>
</g>

</svg>
